<?xml version="1.0" encoding="UTF-8"?>
<svg width="300px" height="64px" viewBox="0 0 300 64" version="1.1" xmlns="http://www.w3.org/2000/svg" xmlns:xlink="http://www.w3.org/1999/xlink">
    <!-- Generator: Sketch 52.3 (67297) - http://www.bohemiancoding.com/sketch -->
    <title>logo</title>
    <desc>Created with Sketch.</desc>
    <g id="logo" stroke="none" stroke-width="1" fill="none" fill-rule="evenodd">
        <path d="M52.0860001,49 L52.0860001,34.216 L40.7580001,14.68 L49.3020001,14.68 L56.2620001,27.832 L63.0780001,14.68 L70.6140001,14.68 L59.9100001,34.216 L59.9100001,49 L52.0860001,49 Z M78.8980001,49.528 C74.3380001,49.528 70.4980001,47.32 70.4980001,42.04 C70.4980001,36.184 75.8740001,33.976 83.5540001,33.976 L86.3860001,33.976 L86.3860001,32.968 C86.3860001,29.992 85.4740001,28.36 82.3060001,28.36 C79.5700001,28.36 78.3220001,29.752 78.0340001,31.912 L71.4580001,31.912 C71.8900001,25.96 76.5940001,23.32 82.7380001,23.32 C88.8820001,23.32 93.2500001,25.816 93.2500001,32.632 L93.2500001,49 L86.4820001,49 L86.4820001,45.976 C85.0420001,47.992 82.8340001,49.528 78.8980001,49.528 Z M80.9620001,44.68 C84.0340001,44.68 86.3860001,43 86.3860001,40.216 L86.3860001,38.104 L83.6980001,38.104 C79.6660001,38.104 77.3140001,38.968 77.3140001,41.656 C77.3140001,43.48 78.4180001,44.68 80.9620001,44.68 Z M100.382,49 L100.382,23.896 L107.342,23.896 L107.342,27.736 C108.59,25.384 111.278,23.32 115.022,23.32 C118.334,23.32 120.83,24.712 122.03,27.688 C124.046,24.664 127.31,23.32 130.478,23.32 C135.134,23.32 138.734,26.248 138.734,32.92 L138.734,49 L131.822,49 L131.822,33.688 C131.822,30.472 130.382,29.032 127.886,29.032 C125.198,29.032 123.038,30.76 123.038,34.168 L123.038,49 L116.126,49 L116.126,33.688 C116.126,30.472 114.638,29.032 112.19,29.032 C109.502,29.032 107.342,30.76 107.342,34.168 L107.342,49 L100.382,49 Z M160.842,49.528 C156.954,49.528 154.122,47.608 152.826,45.016 L152.826,49 L145.866,49 L145.866,12.52 L152.826,12.52 L152.826,27.832 C154.218,25.432 157.146,23.32 160.842,23.32 C166.986,23.32 171.786,27.88 171.786,36.184 L171.786,36.568 C171.786,44.872 167.082,49.528 160.842,49.528 Z M158.778,44.104 C162.618,44.104 164.73,41.512 164.73,36.616 L164.73,36.232 C164.73,31.144 162.234,28.648 158.73,28.648 C155.082,28.648 152.586,31.192 152.586,36.232 L152.586,36.616 C152.586,41.656 154.986,44.104 158.778,44.104 Z M189.334,44.248 C193.222,44.248 195.478,41.368 195.478,36.616 L195.478,36.28 C195.478,31.48 193.222,28.6 189.334,28.6 C185.494,28.6 183.19,31.384 183.19,36.184 L183.19,36.568 C183.19,41.368 185.398,44.248 189.334,44.248 Z M189.286,49.528 C181.798,49.528 176.086,44.536 176.086,36.712 L176.086,36.328 C176.086,28.456 181.798,23.32 189.334,23.32 C196.87,23.32 202.534,28.36 202.534,36.184 L202.534,36.568 C202.534,44.488 196.822,49.528 189.286,49.528 Z M220.082,44.248 C223.97,44.248 226.226,41.368 226.226,36.616 L226.226,36.28 C226.226,31.48 223.97,28.6 220.082,28.6 C216.242,28.6 213.938,31.384 213.938,36.184 L213.938,36.568 C213.938,41.368 216.146,44.248 220.082,44.248 Z M220.034,49.528 C212.546,49.528 206.834,44.536 206.834,36.712 L206.834,36.328 C206.834,28.456 212.546,23.32 220.082,23.32 C227.618,23.32 233.282,28.36 233.282,36.184 L233.282,36.568 C233.282,44.488 227.57,49.528 220.034,49.528 Z" id="Yamboo" fill="#FFFFFF"></path>
        <path d="M239.878222,22 L239.878222,12.24 L236.694222,12.24 L236.694222,10.56 L245.206222,10.56 L245.206222,12.24 L242.022222,12.24 L242.022222,22 L239.878222,22 Z M248.856,22 L248.856,10.56 L251.704,10.56 L254.712,18.368 L257.656,10.56 L260.472,10.56 L260.472,22 L258.344,22 L258.344,13.36 L254.936,22 L254.248,22 L250.776,13.36 L250.776,22 L248.856,22 Z" id="TM" fill="#F5A623"></path>
    </g>
</svg>